<mxfile host="app.diagrams.net" modified="2023-12-27T23:03:08.017Z" agent="Mozilla/5.0 (Windows NT 10.0; Win64; x64) AppleWebKit/537.36 (KHTML, like Gecko) Chrome/120.0.0.0 Safari/537.36" etag="E2fq-jYisy5jEqzcuDcc" version="22.1.15" type="github">
  <diagram name="Página-1" id="DB8JVt9-QcnGSKXoZ5n0">
    <mxGraphModel dx="1050" dy="522" grid="1" gridSize="10" guides="1" tooltips="1" connect="1" arrows="1" fold="1" page="1" pageScale="1" pageWidth="827" pageHeight="1169" math="0" shadow="0">
      <root>
        <mxCell id="0" />
        <mxCell id="1" parent="0" />
        <mxCell id="CxfMQylhbC5aw5fb1wcu-1" value="&lt;font style=&quot;font-size: 14px;&quot;&gt;Início&lt;/font&gt;" style="ellipse;whiteSpace=wrap;html=1;" vertex="1" parent="1">
          <mxGeometry x="360" y="40" width="120" height="80" as="geometry" />
        </mxCell>
      </root>
    </mxGraphModel>
  </diagram>
</mxfile>
